<svg id="Layer_1" xmlns="http://www.w3.org/2000/svg" viewBox="0 0 3000 1250"><style>.st0{fill:url(#SVGID_1_);} .st1{opacity:0.33;fill:#282828;} .st2{opacity:0.1;fill:#FFFFFF;} .st3{opacity:0.1;fill:#020202;} .st4{fill:#FFFFFF;} .st5{fill:url(#SVGID_2_);} .st6{opacity:0.2;fill:#020202;} .st7{fill:url(#SVGID_3_);} .st8{opacity:0.3;fill:#020202;} .st9{opacity:8.000000e-02;} .st10{opacity:0.15;} .st11{opacity:0.25;} .st12{opacity:0.4;} .st13{fill:url(#SVGID_4_);} .st14{fill:url(#SVGID_5_);} .st15{opacity:0.25;fill:#020202;} .st16{fill:url(#SVGID_6_);} .st17{fill:url(#SVGID_7_);} .st18{opacity:5.000000e-02;fill:#020202;} .st19{fill:url(#SVGID_8_);}</style><linearGradient id="SVGID_1_" gradientUnits="userSpaceOnUse" x1="1675.178" y1="-152.07" x2="1303.157" y2="1498.176"><stop offset="0" stop-color="#90EDEA"/><stop offset="1" stop-color="#FECDE3"/></linearGradient><path class="st0" d="M0 0h3000v1250H0z"/><path class="st3" d="M2297.403 1250.003V.003h702.6v1250z"/><path class="st2" d="M.006 442.4V0h2297.4v442.4z"/><path class="st4" d="M280.7 683v37.3h-4.9V616h28.5c12.5 0 31 1.5 31 32.9s-18.5 34.1-31 34.1h-23.6zm0-4.7h25.5c9.7 0 24-1.9 24-29.4s-14.3-28.2-24-28.2h-25.5v57.6zM414.4 715.5v4.8h-28.6v-69.7h-25v-4.8h29.9v69.7h23.7zm-33.1-99.2c0-3.7 3-6.7 6.7-6.7s6.7 3 6.7 6.7-3 6.7-6.7 6.7-6.7-3-6.7-6.7zM494.7 722.1c0 17.6-12.7 26.8-25.5 26.8-4 0-7.6-.3-10.7-.9l1.3-5.1c2.2.6 5.2 1 8.3 1 16.1 0 21.6-12.1 21.6-24.9v-68.5h-31v-4.8h35.9v76.4zm3.5-105.8c0 3.7-3 6.7-6.7 6.7s-6.7-3-6.7-6.7c0-3.9 3-6.7 6.7-6.7s6.7 3 6.7 6.7zM600.5 720.6l-9.4-9.4c-3.6 3.7-12.1 10.7-27 10.7-16.2 0-26.5-7.7-26.5-24.4 0-16.5 7.7-24.3 30.4-24.3h21.2v-8.5c0-11.8-10-15.8-21.6-15.8-9.7 0-17.4 2.8-21.2 7l-3.6-3.7c5.1-5.1 12.5-8.2 25.8-8.2s25.5 6 25.5 19.5v44l9.8 9.7-3.4 3.4zm-11.4-14.8V678h-17c-20.3 0-29.7 2.8-29.7 19.5 0 15.3 10.1 19.7 23.7 19.7 10.7 0 19-6.1 23-11.4zM695.2 670.8v49.5h-4.9v-48c0-19.2-2.1-23.2-10.7-23.2-10.6 0-17 13-18 18.8v52.4h-4.9v-48c0-19.2-.4-23.2-9.7-23.2-10.4 0-17 13.3-18 18.8v52.4h-5v-74.5h4.9v10.7c4.2-7.5 10.9-12.4 18.5-12.4 8.8 0 12.8 3.9 13.9 12.8 3.9-7.7 10.7-12.8 19.1-12.8 10.6.1 14.8 5.4 14.8 26.7zM779.3 720.6l-9.4-9.4c-3.6 3.7-12.1 10.7-27 10.7-16.2 0-26.5-7.7-26.5-24.4 0-16.5 7.7-24.3 30.4-24.3H768v-8.5c0-11.8-10-15.8-21.6-15.8-9.7 0-17.4 2.8-21.2 7l-3.6-3.7c5.1-5.1 12.5-8.2 25.8-8.2s25.5 6 25.5 19.5v44l9.8 9.7-3.4 3.4zm-11.4-14.8V678h-17c-20.3 0-29.7 2.8-29.7 19.5 0 15.3 10.1 19.7 23.7 19.7 10.7 0 19-6.1 23-11.4zM861.9 715.5v4.8c-.9.1-8.2 1.6-16.2 1.6-9.2 0-17.3-3.7-17.3-19.1v-97h-24.1V601h29.1v101c0 13.9 7.2 15.3 13.7 15.3s14.1-1.6 14.8-1.8zM949.3 715.5v4.8h-27.1v-69.7h-23.5v-4.8h28.5v69.7h22.1zM1133 676.8v43.5h-4.9v-42c0-20.4-3-29.4-17.6-29.4-13.4 0-27 10.6-27.6 24.9v46.5h-4.9V601.1h4.9v57.7c5.5-8.5 15.5-14.8 28.2-14.8 16.5 0 21.9 8.5 21.9 32.8zM1226.2 720.6l-9.4-9.4c-3.6 3.7-12.1 10.7-27 10.7-16.2 0-26.5-7.7-26.5-24.4 0-16.5 7.7-24.3 30.4-24.3h21.2v-8.5c0-11.8-10-15.8-21.6-15.8-9.7 0-17.4 2.8-21.2 7l-3.6-3.7c5.1-5.1 12.5-8.2 25.8-8.2s25.5 6 25.5 19.5v44l9.8 9.7-3.4 3.4zm-11.3-14.8V678h-17c-20.3 0-29.7 2.8-29.7 19.5 0 15.3 10.1 19.7 23.7 19.7 10.7 0 19-6.1 23-11.4zM1253.8 712.8l5.1-3.7c4.5 5.1 14.2 7.9 24.6 7.9 10.4 0 24.1-4.3 24.1-17.6 0-12.1-20-14.3-25.5-15.8-7-1.9-25.8-5.8-25.8-20.4 0-13.4 15.5-19.2 28.2-19.2s22.6 4.6 25.6 10l-5.2 3.3c-4-6.6-13.3-8.3-20.4-8.3s-22.5 2.5-22.5 14.3c0 11.6 16.4 14 21.5 15.3 7 1.8 29.8 5.1 29.8 20.9 0 15-15.2 22.5-30.1 22.5-12.7-.1-24-3.8-29.4-9.2zM1371.2 650.6V706c0 9.4 5.7 11.3 10.9 11.3s12.1-1.5 13.3-1.8v4.8c-1.2.1-5.5 1.6-14 1.6-10 0-15-6.6-15-14.5v-56.9h-20.9v-4.8h20.9V619h4.9v26.8h29.7v4.8h-29.8zM1494.4 720.6l-9.4-9.4c-3.6 3.7-12.1 10.7-27 10.7-16.2 0-26.5-7.7-26.5-24.4 0-16.5 7.7-24.3 30.4-24.3h21.2v-8.5c0-11.8-10-15.8-21.6-15.8-9.7 0-17.4 2.8-21.2 7l-3.6-3.7c5.1-5.1 12.5-8.2 25.8-8.2s25.5 6 25.5 19.5v44l9.8 9.7-3.4 3.4zm-11.3-14.8V678h-17c-20.3 0-29.7 2.8-29.7 19.5 0 15.3 10.1 19.7 23.7 19.7 10.6 0 19-6.1 23-11.4zM1669.2 645.8l-25.6 74.5c-6.6 17.6-16.1 28.6-26.7 28.6-1.9 0-4-.3-4.8-.4l1.3-4.8s1.5.3 3.3.3c9.4 0 16.8-10.6 22.1-24.9l-26.4-73.3h6l23.2 65.9 21.6-65.9h6zM1762.6 720.6l-9.4-9.4c-3.6 3.7-12.1 10.7-27 10.7-16.2 0-26.5-7.7-26.5-24.4 0-16.5 7.7-24.3 30.4-24.3h21.2v-8.5c0-11.8-10-15.8-21.6-15.8-9.7 0-17.4 2.8-21.2 7l-3.6-3.7c5.1-5.1 12.5-8.2 25.8-8.2s25.5 6 25.5 19.5v44l9.8 9.7-3.4 3.4zm-11.3-14.8V678h-17c-20.3 0-29.7 2.8-29.7 19.5 0 15.3 10.1 19.7 23.7 19.7 10.6 0 19-6.1 23-11.4zM1851.7 729.7c-.9 6.9-7.5 17.7-30 17.7-22.1 0-31.6-6.9-31.6-17.7 0-6.1 3.7-10.4 7-13-2.2-2.4-3.1-6-2.5-10.1.7-5.5 4.3-10 7.7-13-6.1-4-10.3-11-10.3-22.6 0-21.2 12.8-27 28.8-27 8.9 0 17 1.9 22.2 7.3l10.6-10.4 3.4 3.4-11 11c2.1 3.9 3.4 8.9 3.4 15.6 0 21.3-13.6 27.1-28.6 27.1-5.2 0-10.1-.7-14.5-2.4-6.7 6.3-9.8 19.5-.4 19.8l5.5.1H1835.3c13.8.2 17.3 7.2 16.4 14.2zm-18.7-9.3h-25.6c-2.7 0-4.9-.4-6.7-1.2-2.5 2.2-5.2 5.8-5.1 10.7.1 7.7 8.2 12.7 26.2 12.7s23.4-7.3 24.3-12.4c.9-4.7.1-9.8-13.1-9.8zm-12.1-27.2c13.7 0 23.2-5.2 23.2-22.2 0-16.8-8-22.2-23.2-22.2-15.3 0-23.4 5.4-23.4 22.2 0 17 9.5 22.2 23.4 22.2zm-16.1-84.7h5.4c0 4.6 1.6 14 10.6 14 9.1 0 10.6-9.4 10.6-14h5.4c0 9.2-5.5 18.5-16.1 18.5s-15.9-9.2-15.9-18.5zM1932.6 715.5v4.8h-27.1v-69.7H1882v-4.8h28.5v69.7h22.1zM2028.7 715.5v4.8h-55.6v-4.8l49.3-65h-48.1v-4.8h54.1v4.8l-49 65h49.3zM304.2 876.6l-2.5 7c6-3.7 19.8-4.3 20 5.8.1 13.6-16.2 18.3-31.6 14.5l1.6-4.6c11.8 3.3 24.7-.3 24.4-8.8-.3-7.9-12.4-4.5-16.2-2.1l-3.9-1.2 3.4-10.3c-12.5 0-23.7-3.7-29.1-9.1l5.1-3.7c4.5 5.1 14.2 7.9 24.6 7.9s24.1-4.3 24.1-17.6c0-12.1-20-14.3-25.5-15.8-7-1.9-25.8-5.8-25.8-20.4 0-13.4 15.5-19.2 28.2-19.2s22.6 4.6 25.6 10l-5.2 3.3c-4-6.6-13.3-8.3-20.4-8.3-7.2 0-22.5 2.5-22.5 14.3 0 11.6 16.4 14 21.5 15.3 7 1.8 29.8 5.1 29.8 20.9.1 13.5-12.1 20.8-25.6 22.1zM361.8 837.9c0-28.6 13.1-38.9 29.1-38.9 15.8 0 28.9 10.3 28.9 38.9 0 28.8-13.1 39-28.9 39-16 0-29.1-10.2-29.1-39zm52.6 0c0-26.2-11.3-34-23.5-34-12.4 0-23.7 7.7-23.7 34 0 26.7 11.3 34.1 23.7 34.1 12.1 0 23.5-7.4 23.5-34.1zM480.4 785v15.8h29.9v4.8h-29.9v69.7h-4.9v-69.7h-20.6v-4.8h20.6V782c0-17.6 8.2-27 25.5-27 4.8 0 8.8.4 12.4 1.3l-1.6 4.8c-2.4-.7-5.5-1.2-9.7-1.2-13.2.1-21.7 4.8-21.7 25.1zM540.6 837.9c0-28.6 13.1-38.9 29.1-38.9 15.8 0 28.9 10.3 28.9 38.9 0 28.8-13.1 39-28.9 39-16 0-29.1-10.2-29.1-39zm52.6 0c0-26.2-11.3-34-23.5-34-12.4 0-23.7 7.7-23.7 34 0 26.7 11.3 34.1 23.7 34.1 12.1 0 23.5-7.4 23.5-34.1zm-44.4-68.4c0-3.7 3-6.7 6.7-6.7s6.7 3 6.7 6.7-3 6.7-6.7 6.7c-3.8 0-6.7-3-6.7-6.7zm28.7 0c0-3.7 3-6.7 6.7-6.7s6.7 3 6.7 6.7-3 6.7-6.7 6.7-6.7-3-6.7-6.7zM696.9 800.9l-1.8 5.1s-2.5-1.9-9.4-1.9c-13.6 0-23.8 9.8-27.4 22.5v44h24v4.8h-53v-4.8h24.1v-65h-24.1v-4.8h29.1V815c5.5-9.4 15.8-15.9 28.5-15.9 4.6-.1 8.3 1.1 10 1.8zM778.4 838.2H723c.1 22.1 10.7 33.8 26.1 33.8s20.7-8.2 23.5-13.3l5.2 2.8c-3.4 5.4-11.8 15.3-28.8 15.3s-31.6-11.8-31.6-39c0-27.9 14.6-38.9 32-38.9 19.6.1 30.4 18.4 29 39.3zm-5.9-4.8c.4-13.7-7.9-29.5-23.4-29.5-14.3 0-24.7 9.7-26.1 29.5h49.5zM953.4 859.5l4.9 2.5c-2.7 5.5-11.2 14.9-25.5 14.9l-2.5 6.7c6-3.7 19.8-4.3 20 5.8.1 13.6-16.2 18.3-31.6 14.5l1.6-4.6c11.8 3.3 24.7-.3 24.4-8.8-.3-7.9-12.4-4.5-16.2-2.1l-3.9-1.2 3.6-10.6c-13.3-2.1-27.1-13.1-27.1-38.7 0-28.8 17.1-38.9 31.6-38.9s21.6 7.6 25.6 15.5l-4.6 2.4c-3.9-8-9.4-13-21-13-12.4 0-26.2 10.3-26.2 34 0 23.4 13.9 34.1 26.2 34.1 11.6 0 18-7 20.7-12.5zM1047.4 875.6l-9.4-9.4c-3.6 3.7-12.1 10.7-27 10.7-16.2 0-26.5-7.7-26.5-24.4 0-16.5 7.7-24.3 30.4-24.3h21.2v-8.5c0-11.8-10-15.8-21.6-15.8-9.7 0-17.4 2.8-21.2 7l-3.6-3.7c5.1-5.1 12.5-8.2 25.8-8.2s25.5 6 25.5 19.5v44l9.8 9.7-3.4 3.4zm-11.3-14.8V833h-17c-20.3 0-29.7 2.8-29.7 19.5 0 15.3 10.1 19.7 23.7 19.7 10.7 0 19-6.1 23-11.4zM1136 837.9c0 27.3-12.5 39-26.8 39-12.2 0-20.3-6.7-24.4-15.9v14.3h-4.9V756.1h4.9v59.5c4.8-9.5 13.7-16.4 25.9-16.4 14.2 0 25.3 11.4 25.3 38.7zm-5 0c0-24.6-8.2-33.8-21.5-33.8-13.1 0-22.4 12.7-24.9 23.2v20.1c2.2 11.8 10.6 24.6 23.5 24.6 13.4 0 22.9-10 22.9-34.1zM1218.8 875.3v-11.8c-5.4 8-15 13.3-27 13.3-12.8 0-23.1-5.4-23.1-29.7v-46.5h4.9v43.5c0 17.7 2.5 27.7 19.2 27.7s24-12.5 25.9-17.4v-53.8h4.9v59.6l.1 15h-4.9zM1290.3 876.9c-14.5 0-31.6-10.6-31.6-39 0-28.8 17.1-38.9 31.6-38.9s21.6 7.6 25.6 15.5l-4.6 2.4c-3.9-8-9.4-13-21-13-12.4 0-26.2 10.3-26.2 34 0 23.4 13.9 34.1 26.2 34.1 11.6 0 18-7 20.7-12.5l4.9 2.5c-2.6 5.6-11.1 14.9-25.6 14.9zM1405 875.6l-9.4-9.4c-3.6 3.7-12.1 10.7-27 10.7-16.2 0-26.5-7.7-26.5-24.4 0-16.5 7.7-24.3 30.4-24.3h21.2v-8.5c0-11.8-10-15.8-21.6-15.8-9.7 0-17.4 2.8-21.2 7l-3.6-3.7c5.1-5.1 12.5-8.2 25.8-8.2s25.5 6 25.5 19.5v44l9.8 9.7-3.4 3.4zm-11.3-14.8V833h-17c-20.3 0-29.7 2.8-29.7 19.5 0 15.3 10.1 19.7 23.7 19.7 10.6 0 19-6.1 23-11.4zM1456.7 839.1H1446v36.2h-4.9V756.1h4.9v78.2h10l31.1-33.5h6.4l-32.8 35.6 35 38.9h-6.6l-32.4-36.2zM332 1039.7c-.9 6.9-7.4 17.7-29.9 17.7-22.1 0-31.6-6.9-31.6-17.7 0-6.1 3.7-10.4 7-13-2.2-2.4-3.1-6-2.5-10.1.7-5.5 4.3-10 7.7-13-6.1-4-10.3-11-10.3-22.6 0-21.2 12.8-27 28.8-27 8.9 0 17 1.9 22.2 7.3l10.6-10.4 3.4 3.4-11 11c2.1 3.9 3.4 8.9 3.4 15.6 0 21.3-13.6 27.1-28.6 27.1-5.2 0-10.1-.7-14.5-2.4-6.7 6.3-9.8 19.5-.4 19.8l5.5.1H315.7c13.6.2 17.2 7.2 16.3 14.2zm-18.8-9.3h-25.6c-2.7 0-4.9-.4-6.7-1.2-2.5 2.2-5.2 5.8-5.1 10.7.1 7.7 8.2 12.7 26.2 12.7s23.4-7.3 24.3-12.4c.9-4.7.1-9.8-13.1-9.8zm-12.1-27.2c13.7 0 23.2-5.2 23.2-22.2 0-16.8-8-22.2-23.2-22.2-15.3 0-23.4 5.4-23.4 22.2 0 17 9.6 22.2 23.4 22.2zM414.2 1030.3v-11.8c-5.4 8-15 13.3-27 13.3-12.8 0-23.1-5.4-23.1-29.7v-46.5h4.9v43.5c0 17.7 2.5 27.7 19.2 27.7s24-12.5 25.9-17.4v-53.8h4.9v59.6l.1 15h-4.9zM370 924.5c0-3.7 3-6.7 6.7-6.7s6.7 3 6.7 6.7-3 6.7-6.7 6.7c-3.8 0-6.7-3-6.7-6.7zm28.7 0c0-3.7 3-6.7 6.7-6.7s6.7 3 6.7 6.7-3 6.7-6.7 6.7-6.7-3-6.7-6.7zM506 955.8l-18.2 74.5h-15.5l-18.2-74.5h5.5l16.5 69.7h7.7l16.5-69.7h5.7zM599.6 993.2h-55.4c.1 22.1 10.7 33.8 26.1 33.8s20.7-8.2 23.5-13.3l5.2 2.8c-3.4 5.4-11.8 15.3-28.8 15.3s-31.6-11.8-31.6-39c0-27.9 14.6-38.9 32-38.9 19.6.1 30.4 18.4 29 39.3zm-5.9-4.8c.4-13.7-7.9-29.5-23.4-29.5-14.3 0-24.7 9.7-26.1 29.5h49.5zM683.9 980.8v49.5H679v-47.7c0-20.7-6-23.5-16.7-23.5-12.2 0-26.5 12.5-27 21.9v49.3h-4.9v-74.5h4.9v13.7c5.8-8.8 16.4-15.3 28.2-15.3 15.8 0 20.4 8.3 20.4 26.6zM772.1 911.1v119.2h-4.9V1016c-4.2 9.2-12.2 15.9-24.4 15.9-14.3 0-26.8-11.8-26.8-39s11-38.7 25.3-38.7c12.2 0 21.2 6.9 25.9 16.4v-59.5h4.9zm-4.9 91.3v-20.1c-2.5-10.6-11.8-23.2-24.9-23.2-13.3 0-21.5 9.2-21.5 33.8 0 24.1 9.5 34.1 22.8 34.1 13 0 21.3-12.8 23.6-24.6zM861.3 1025.5v4.8h-28.6v-69.7h-25v-4.8h29.9v69.7h23.7zm-33-99.2c0-3.7 3-6.7 6.7-6.7s6.7 3 6.7 6.7-3 6.7-6.7 6.7-6.7-3-6.7-6.7zM918.4 1024.3c0-4.3 3.4-7.7 7.7-7.7 4.3 0 7.7 3.4 7.7 7.7s-3.4 7.7-7.7 7.7c-4.3.1-7.7-3.3-7.7-7.7z"/><g><path class="st4" d="M325.7 274.7l-8.6-8.5c-4 3.4-11.2 7.5-22.3 7.5-19 0-27.8-7.1-27.8-22.5 0-15.2 9.7-22.3 30.5-22.3h16.2v-4.8c0-8.1-5.1-10.7-15.8-10.7-8.9 0-14.5 1.9-17.9 5.8l-8.5-8.4c4.7-4.7 14.4-8.8 27.4-8.8 17.3 0 27.5 6.8 27.5 19.3v37.1l7.9 7.9-8.6 8.4zM297 262.6c6.4 0 13.3-3 16.6-6.4v-15.9h-11.5c-18.6 0-22.5 1.9-22.5 11.1 0 8.1 4.8 11.2 17.4 11.2zm.2-75.1h-12.9l14-19.2h18.5l-19.6 19.2zM418.8 204.5l-4.1 11.4c-.8-.7-4-1.9-10-1.9-11.2 0-17.5 8.4-19.3 12.9V261h17.9v11.2h-48.8V261h18.1v-46h-18.1v-11.2h28.1l1.9 9.2c4.7-6.6 12.6-10.8 22.9-10.8 5.4-.1 9.5 1.4 11.4 2.3zM492 203.8l-16.7 68.5h-22.5l-16.7-68.5h13.3l12.9 57.3h3.6l12.9-57.3H492zM569.4 261v11.2H539V215h-18.9v-11.2h31.6V261h17.7zm-25.6-73.5h-12.9l14-19.2h18.5l-19.6 19.2zM656.4 261v11.2h-53.8V261l37.7-46h-36.6v-11.2h51.1V215l-37.4 46h39zM716.5 215v46h16.7v11.2h-29.5V215H686v-11.2h17.8v-24.7h12.7v24.7h22.2V215h-22.2zM810.4 272.3l-1-8.9c-4.7 6.3-12.5 10.3-22.5 10.3-15.9 0-24-9-24-31.4v-38.6h12.7v34.5c0 16.3 1.4 24.1 14 24.1 11.2 0 17.5-8.6 19.3-13.2v-45.5h12.7v54.8l.1 13.8h-11.3zm-24.8-84.8h-10.8l7.9-19.2h14.4l-11.5 19.2zm7.5 0l11.6-19.2H820l-16.7 19.2h-10.2zM912 204.5l-4.1 11.4c-.8-.7-4-1.9-10-1.9-11.2 0-17.5 8.4-19.3 12.9V261h17.9v11.2h-48.8V261h18.1v-46h-18.1v-11.2h28.1l1.9 9.2c4.7-6.6 12.6-10.8 22.9-10.8 5.4-.1 9.5 1.4 11.4 2.3zM926.5 237.9c0-26.3 14.8-35.8 30.8-35.8 15.9 0 30.7 9.5 30.7 35.8 0 26.4-14.8 35.9-30.7 35.9-16 0-30.8-9.5-30.8-35.9zm17.9-69.6h14.4l-11.5 19.2h-10.8l7.9-19.2zm30.2 69.6c0-18.2-8.8-24.4-17.3-24.4-8.6 0-17.4 6.2-17.4 24.4 0 18.4 8.8 24.5 17.4 24.5 8.6 0 17.3-6.2 17.3-24.5zm-8.2-69.6h15.2l-16.7 19.2h-10.1l11.6-19.2zM1127.5 215v46h16.7v11.2h-29.5V215H1097v-11.2h17.8v-24.7h12.7v24.7h22.2V215h-22.2zM1221.4 272.3l-1-8.9c-4.7 6.3-12.5 10.3-22.5 10.3-15.9 0-24-9-24-31.4v-38.6h12.7v34.5c0 16.3 1.4 24.1 14 24.1 11.2 0 17.5-8.6 19.3-13.2v-45.5h12.7v54.8l.1 13.8h-11.3zm-40.2-97c0-4.9 3.8-8.8 8.6-8.8s8.6 3.8 8.6 8.8c0 4.8-3.8 8.6-8.6 8.6-4.7 0-8.6-3.8-8.6-8.6zm27.8 0c0-4.9 3.8-8.8 8.6-8.8s8.6 3.8 8.6 8.8c0 4.8-3.8 8.6-8.6 8.6-4.7 0-8.6-3.8-8.6-8.6zM1277.5 242.4h-4.8v29.9H1260V162.7h12.7v68.5h3.7l25.5-27.4h15.5l-30 32.6 32.3 35.9h-15.5l-26.7-29.9zM1337.5 237.9c0-26.3 14.8-35.8 30.8-35.8 15.9 0 30.7 9.5 30.7 35.8 0 26.4-14.8 35.9-30.7 35.9-16 0-30.8-9.5-30.8-35.9zm8.1-62.6c0-4.9 3.8-8.8 8.6-8.8s8.6 3.8 8.6 8.8c0 4.8-3.8 8.6-8.6 8.6-4.7 0-8.6-3.8-8.6-8.6zm40 62.6c0-18.2-8.8-24.4-17.3-24.4-8.6 0-17.4 6.2-17.4 24.4 0 18.4 8.8 24.5 17.4 24.5 8.6 0 17.3-6.2 17.3-24.5zm-12.2-62.6c0-4.9 3.8-8.8 8.6-8.8s8.6 3.8 8.6 8.8c0 4.8-3.8 8.6-8.6 8.6-4.7 0-8.6-3.8-8.6-8.6zM1487.4 204.5l-4.1 11.4c-.8-.7-4-1.9-10-1.9-11.2 0-17.5 8.4-19.3 12.9V261h17.9v11.2h-48.8V261h18.1v-46h-18.1v-11.2h28.1l1.9 9.2c4.7-6.6 12.6-10.8 22.9-10.8 5.4-.1 9.5 1.4 11.4 2.3zM1537 189.3v14.5h24.8V215H1537v57.3h-12.7V215h-16.2v-11.2h16.2v-17.3c0-16.2 11.6-24.8 27.5-24.8 5.6 0 10.1.7 13.8 2.1l-3.8 10.5c-2.2-.8-5.1-1.2-9-1.2-12.1 0-15.8 4.4-15.8 16.2zM1632.4 272.3l-1-8.9c-4.7 6.3-12.5 10.3-22.5 10.3-15.9 0-24-9-24-31.4v-38.6h12.7v34.5c0 16.3 1.4 24.1 14 24.1 11.2 0 17.5-8.6 19.3-13.2v-45.5h12.7v54.8l.1 13.8h-11.3zm-20-84.8h-12.9l14-19.2h18.5l-19.6 19.2zM1734 204.5l-4.1 11.4c-.8-.7-4-1.9-10-1.9-11.2 0-17.5 8.4-19.3 12.9V261h17.9v11.2h-48.8V261h18.1v-46h-18.1v-11.2h28.1l1.9 9.2c4.7-6.6 12.6-10.8 22.9-10.8 5.4-.1 9.5 1.4 11.4 2.3zM1748.5 237.9c0-26.3 14.8-35.8 30.8-35.8 15.9 0 30.7 9.5 30.7 35.8 0 26.4-14.8 35.9-30.7 35.9-16 0-30.8-9.5-30.8-35.9zm48.1 0c0-18.2-8.8-24.4-17.3-24.4-8.6 0-17.4 6.2-17.4 24.4 0 18.4 8.8 24.5 17.4 24.5 8.5 0 17.3-6.2 17.3-24.5zm-18.8-69.6h18.5l-19.6 19.2h-12.9l14-19.2zM1893.3 278.2c-.1 13.4-11 20.4-31.2 20.4-20.3 0-31.8-6.2-31.8-16.9 0-6.8 4.5-11.6 7.9-14.4-2.5-2.1-3.8-4.7-3.8-7.7 0-5.9 4.1-9.7 7.5-12.3-6-3.7-10.1-10-10.1-20.4 0-19.5 14.8-24.8 29.5-24.8 8.4 0 16.7 1.8 22.3 6.8 3.2-3.6 7.8-5.6 12.6-5.6l3.4 12.3c-3.8.1-9.3.5-9.2 7.7.1 1.2.1 2.3.1 3.6 0 19.6-16.2 24.9-29.3 24.9-3.8 0-7.7-.4-11.2-1.2-2.5 4.1-3.7 10.5 6.2 10.5h12.6c14.3.1 24.7 4.9 24.5 17.1zm-28.9-5.8h-8.8c-3.7 0-7-.4-9.9-1.2-2.2 3-3.2 8.9-1 11.6 2.9 3.4 8.2 5.1 17.3 5.1 11.1 0 17.7-2.6 18.5-7.8.9-4.8-.9-7.7-16.1-7.7zm-19.1-45.5c0 10.1 4.7 13.7 16 13.7 11.2 0 15.9-3.6 15.9-13.7 0-11.4-3.3-13.6-15.9-13.6-12.8.1-16 3.6-16 13.6zM1974 241.6h-48.1c1 16 8.6 20.8 17.9 20.8 6.6 0 12.9-2.7 17-9.5l11.2 6.2c-6.6 10.5-17.5 14.7-27.8 14.7-15.6 0-31.9-9.5-31.9-35.9 0-27 16.3-35.8 32.3-35.8 20.8 0 30.8 16.2 29.4 39.5zm-13.8-11.2c-1.2-11.2-5.9-16.9-16-16.9-8.6 0-15.9 3.6-17.8 16.9h33.8zm-19-42.9h-12.9l14-19.2h18.5l-19.6 19.2zM2057.6 238.2c0 25.1-10.8 35.6-28.1 35.6-9.5 0-16.2-3.7-20.4-9.3v35.2h-12.7v-95.9h10l2.7 9.7v.1c4.8-6.7 12.3-11.5 21.8-11.5 17.2 0 26.7 11 26.7 36.1zm-12.7 0c0-17.7-4.1-24.7-16.7-24.7-10.3 0-17.5 8.6-19 14.7v21.4c1.4 5.8 7.4 12.9 17.7 12.9 12.5-.1 18-6.7 18-24.3z"/></g><g><path class="st4" d="M2563.9 185.8c-3.3 5.7-10.5 11.3-22.3 11.3-14.4 0-25.3-7-25.3-35.1s11.6-35 25.9-35c8.9 0 15.7 3 20.4 11.8l-8.4 4.4c-2.9-6.1-6.7-8.1-11.9-8.1-9.1 0-16.3 5.1-16.3 26.9s6.6 27 15.7 27c7.2 0 11.5-2.9 13.2-6.6v-16.1h-12.6v-8h21.7v27.5zM2559.6 314.8l-8.7-8.6c-3.2 1.4-6.9 1.9-10.8 1.9-14.4 0-25-7-25-35.1s10.6-35 25-35c14.3 0 24.9 7 24.9 35 0 13.7-2.5 22.4-6.8 27.7l7.9 7.9-6.5 6.2zm-19.5-14.9c9 0 15.3-5.1 15.3-27 0-21.8-6.3-26.9-15.3-26.9-9.1 0-15.4 5.1-15.4 26.9 0 21.9 6.3 27 15.4 27zM2549.5 384.3l15.6 33.7h-10l-13.1-29.9h-2.7l-13.1 29.9h-10l15.6-33.7-15.6-34.9h10l12.9 30.6h3.1l12.9-30.6h10l-15.6 34.9zM2559.6 530.8l-6.2-6.1c-2.8 2.4-8 5.4-16 5.4-13.6 0-19.9-5.1-19.9-16.1 0-10.9 7-16 21.8-16h11.6v-3.4c0-5.8-3.6-7.6-11.3-7.6-6.4 0-10.4 1.4-12.8 4.1l-6.1-6c3.3-3.3 10.3-6.3 19.6-6.3 12.3 0 19.7 4.9 19.7 13.8v26.5l5.7 5.7-6.1 6zm-20.5-8.8c4.6 0 9.5-2.2 11.8-4.6V506h-8.2c-13.3 0-16.1 1.4-16.1 7.9.1 6 3.5 8.1 12.5 8.1zM2563.8 644.2c-.9 8-7.8 14.6-22.3 14.6s-22.7-4.4-22.7-12c0-4.6 2.8-7.8 5.2-9.9-1.7-1.6-2.4-3.5-2.3-5.9.3-4.2 3-7 5.5-8.8-4.4-2.6-7.3-7.1-7.3-14.6 0-13.9 10.6-17.7 21-17.7 5.3 0 10.6 1 14.6 3.8l6.2-6.2 5.7 5.4-7 7c1 2.1 1.5 4.7 1.5 7.7 0 14-12.4 17.8-21 17.8-2.7 0-5.5-.3-8-.9-2.3 2.9-4.6 7.5 2.4 7.5H2551.5c8.2.1 13.2 4.4 12.3 12.2zm-15.8-4.1h-13.1c-2 0-3.7-.2-5.3-.5-1.5 2.3-2.1 6.1-.5 7.9 2.1 2.4 5.9 3.6 12.3 3.6 7.9 0 11.8-2 12.7-5.6.7-2.4.9-5.4-6.1-5.4zm-18.6-32.5c0 7.2 3.3 9.8 11.5 9.8 8 0 11.4-2.5 11.4-9.8 0-8.1-2.3-9.7-11.4-9.7-9.1 0-11.5 2.5-11.5 9.7zM2557.5 743v8h-21.7v-40.9h-13.5v-8h22.6V743h12.6zm-24.1-60.3c0-3.8 2.9-6.8 6.8-6.8 3.8 0 6.8 2.9 6.8 6.8 0 3.8-2.9 6.8-6.8 6.8-3.8-.1-6.8-3-6.8-6.8zM2559.4 854.4v7.6c-.8.1-4.1 1.1-10.7 1.1-6.1 0-14.3-2-14.3-13v-58.3H2519v-8h24.5v64.4c0 7.1 4.4 7.4 7 7.4 3.1-.1 7.8-1.1 8.9-1.2zM2542.5 932.1v27c0 6.2 2.4 7.4 5.6 7.4 3 0 7.2-1 8.3-1.2v7.6c-.8.1-3.6 1.1-10.2 1.1s-12.8-2.9-12.8-13v-29h-11.7v-8h11.7v-17.6h9.1V924h17.5v8h-17.5zM2549 1059.3l15.4 24.7h-10.5l-12.3-20.8h-2.5l-12.3 20.8h-10.5l15.4-24.7-15.4-24.3h10.5l12.2 20.2h2.7l12.2-20.2h10.5l-15.4 24.3z"/></g><g><path class="st4" d="M2805.4 158.3v8c0 20.9-8.3 30.7-22.7 30.7-14.4 0-25.5-7-25.5-35.1s10.6-35 25-35c8.9 0 16.6 3 21.3 11.8l-8.4 4.4c-2.9-6.1-7.6-8.1-12.9-8.1-9.1 0-15.4 5.1-15.4 26.9s6.8 27 15.9 27c8.6 0 13.7-4.7 14.2-22.6h-13.8v-8h22.3zM2808.1 312.1l-7.1 6.5c-1-6.2-6.5-12.4-12.5-11.4-2.5.6-5.2.9-8 .9-14.4 0-25-7-25-35.1s10.6-35 25-35c14.3 0 24.9 7 24.9 35 0 13.6-2.4 22.3-6.7 27.6 5.6 2.6 8.9 7.7 9.4 11.5zm-27.8-12.2c9 0 15.3-5.1 15.3-27 0-21.8-6.3-26.9-15.3-26.9-9.1 0-15.4 5.1-15.4 26.9.1 21.9 6.3 27 15.4 27zM2785.7 383.5l19 34.5h-10.4l-13.4-25.5-13.3 25.5h-10.5l19-34.5-19-34.1h10.5l13.3 25.1 13.4-25.1h10.4l-19 34.1zM2806.2 522.1v7.4c-1.2.3-2.5.5-3.8.5-4.2 0-7.2-1.7-9.1-4.9-2.9 2.3-7.9 4.9-15.3 4.9-13.6 0-19.9-5.1-19.9-16.1 0-10.9 7-16 21.8-16h11.6v-3.4c0-5.8-3.6-7.6-11.3-7.6-6.4 0-10.6 1.6-13 4.3l-6.2-6.6c3.3-3.3 10.6-5.9 19.9-5.9 12.3 0 19.7 4.9 19.7 13.8v22.4c0 5.7 1 7.2 4.1 7.2.4.2.9.1 1.5 0zm-14.7-4.7V506h-8.2c-13.3 0-16.1 1.4-16.1 7.9 0 5.9 3.4 8 12.4 8 4.7.1 9.6-2 11.9-4.5zM2804 644.2c-.1 9.6-7.8 14.6-22.3 14.6s-22.7-4.4-22.7-12c0-4.9 3.2-8.3 5.7-10.3-1.8-1.5-2.7-3.3-2.7-5.5 0-4.2 2.9-7 5.4-8.8-4.3-2.6-7.2-7.1-7.2-14.6 0-13.9 10.6-17.7 21-17.7 6 0 11.9 1.3 16 4.9 2.3-2.5 5.6-4 9-4l2.4 8.8c-2.7.1-6.7.4-6.6 5.5.1.9.1 1.7.1 2.5 0 14-11.6 17.8-21 17.8-2.7 0-5.5-.3-8-.9-1.8 2.9-2.6 7.5 4.4 7.5h9c10.2.1 17.6 3.5 17.5 12.2zm-20.6-4.1h-6.3c-2.6 0-5-.3-7-.9-1.6 2.2-2.3 6.4-.7 8.3 2.1 2.4 5.9 3.6 12.3 3.6 7.9 0 12.6-1.9 13.2-5.6.6-3.4-.7-5.4-11.5-5.4zm-13.7-32.5c0 7.2 3.3 9.8 11.5 9.8 8 0 11.4-2.5 11.4-9.8 0-8.1-2.3-9.7-11.4-9.7-9.2 0-11.5 2.5-11.5 9.7zM2799.8 743.4v7.6c-.8.1-3.6 1.1-10.2 1.1s-12.8-2.9-12.8-13v-29h-13.5v-8h22.6v35c0 6.2 2.4 7.4 5.6 7.4 3 0 7.3-1 8.3-1.1zm-25.9-60.7c0-3.8 2.9-6.8 6.8-6.8s6.8 2.9 6.8 6.8c0 3.8-2.9 6.8-6.8 6.8s-6.8-3-6.8-6.8zM2797.4 854v8h-22.2v-70.3h-13.9v-8h23V854h13.1zM2785.4 932.1V965h11.9v8h-21v-40.9h-12.7v-8h12.7v-17.6h9.1V924h15.9v8h-15.9zM2785.7 1059.4l19 24.6h-11.4l-12.4-17.8-12.3 17.8h-11.5l19-24.7-19-24.3h11.5l12.4 17.6 12.8-17.6h11.4l-19.5 24.4z"/></g><g><path class="st4" d="M2673.8 164.7v3.1h-27.2v-3.1h27.2zM2673.8 275.7v3.1h-27.2v-3.1h27.2zM2673.8 386.7v3.1h-27.2v-3.1h27.2zM2673.8 497.7v3.1h-27.2v-3.1h27.2zM2673.8 608.7v3.1h-27.2v-3.1h27.2zM2673.8 719.7v3.1h-27.2v-3.1h27.2zM2673.8 830.7v3.1h-27.2v-3.1h27.2zM2673.8 941.7v3.1h-27.2v-3.1h27.2zM2673.8 1052.7v3.1h-27.2v-3.1h27.2z"/></g></svg>